<?xml version="1.0" encoding="UTF-8"?>
<svg version="1.1" xmlns="http://www.w3.org/2000/svg" width="2000" height="2000">
<path d="M0 0 C4.13994539 0.52349077 6.06846164 2.69404056 8.95214844 5.57983398 C9.4306575 6.05469238 9.90916656 6.52955078 10.4021759 7.01879883 C11.9787294 8.58725892 13.54418509 10.1662998 15.109375 11.74609375 C16.20173908 12.83897645 17.2946216 13.93134119 18.38800049 15.02320862 C20.67569817 17.31099596 22.95814271 19.60386002 25.23681641 21.90063477 C28.16290817 24.84945365 31.09998695 27.78702864 34.0408287 30.72112942 C36.29736505 32.9743309 38.54889689 35.23247791 40.79883575 37.4922657 C41.8804161 38.57770366 42.96335838 39.66178623 44.04766083 40.74450493 C45.55858215 42.25505695 47.06286177 43.77191614 48.56542969 45.29077148 C49.85305206 46.58530495 49.85305206 46.58530495 51.16668701 47.9059906 C53 50 53 50 53 52 C53.8971875 52.4021875 53.8971875 52.4021875 54.8125 52.8125 C56.99847854 53.99917406 58.41332594 55.09599113 60 57 C60 57.66 60 58.32 60 59 C61.32 59.66 62.64 60.32 64 61 C64 61.66 64 62.32 64 63 C64.99 63.33 65.98 63.66 67 64 C67 64.66 67 65.32 67 66 C68.32 66.66 69.64 67.32 71 68 C71 68.66 71 69.32 71 70 C71.99 70.33 72.98 70.66 74 71 C74 71.66 74 72.32 74 73 C75.32 73.66 76.64 74.32 78 75 C78 75.66 78 76.32 78 77 C78.99 77.33 79.98 77.66 81 78 C83.1875 79.9375 83.1875 79.9375 85 82 C85 82.66 85 83.32 85 84 C85.99 84.33 86.98 84.66 88 85 C90.1875 86.9375 90.1875 86.9375 92 89 C92 89.66 92 90.32 92 91 C92.99 91.33 93.98 91.66 95 92 C96.21870952 93.44927619 97.43338784 94.90256628 98.609375 96.38671875 C100.78602313 98.91187515 103.43918274 100.87506653 106 103 C107.33333333 104.66666667 108.66666667 106.33333333 110 108 C110.969375 108.804375 111.93875 109.60875 112.9375 110.4375 C116.06486774 113.05427709 118.39530806 115.87436967 121 119 C121.99 119.825 122.98 120.65 124 121.5 C127.11157653 124.09298044 129.45064209 126.86232872 132 130 C133.65440832 131.67883551 135.32221576 133.34452557 137 135 C138.50994653 136.51072631 140.01981496 138.02153069 141.52961254 139.53240585 C142.41266668 140.41607669 143.29572081 141.29974752 144.20553416 142.21019626 C144.67683529 142.68183289 145.14813642 143.15346953 145.63371941 143.63939819 C148.26534304 146.27288565 150.8970089 148.90633091 153.52867126 151.53977966 C154.09388002 152.10537265 154.65908878 152.67096563 155.24142508 153.2536978 C181.2400054 179.26990172 207.24112799 205.2835633 233.24420623 231.29527156 C236.99819108 235.05050701 240.75215406 238.80576433 244.50610352 242.56103516 C245.62704178 243.68236689 245.62704178 243.68236689 246.77062527 244.82635179 C258.89831781 256.95840532 271.02424404 269.09222281 283.14952936 281.22668216 C295.59380795 293.68029771 308.03997155 306.13202701 320.48790294 318.58199143 C328.16951759 326.26498051 335.849643 333.94945216 343.52789018 341.63580665 C348.78328427 346.89646871 354.04050074 352.15530492 359.29918083 357.41268221 C362.33661241 360.44947063 365.3732091 363.48708224 368.4076519 366.52685738 C371.18167386 369.30571875 373.95796062 372.08229567 376.7361208 374.85701969 C377.7442795 375.86475327 378.75158075 376.87334548 379.75796648 377.88284966 C381.11898691 379.24784423 382.48335071 380.60950276 383.84791088 381.97095871 C384.6069195 382.73034705 385.36592812 383.48973539 386.147937 384.2721355 C387.89491709 386.06543552 387.89491709 386.06543552 390 387 C390 390 390 390 388.76347351 391.31417847 C388.15276505 391.79815094 387.54205658 392.28212341 386.9128418 392.78076172 C382.83690171 396.20090405 379.0551031 399.83111616 375.29614258 403.59033203 C374.67479777 404.21113585 374.05345297 404.83193966 373.41327953 405.47155571 C371.40506743 407.48169261 369.3997722 409.49471204 367.39453125 411.5078125 C365.98326745 412.92094521 364.57177986 414.33385446 363.16007996 415.74655151 C359.4625492 419.44787952 355.76802991 423.15219901 352.07415771 426.85717773 C348.31752949 430.62404532 344.55806448 434.38807932 340.79882812 438.15234375 C334.7288964 444.23103855 328.66067579 450.31143506 322.59475708 456.39413452 C322.06093918 456.92939758 321.52712128 457.46466064 320.97712708 458.0161438 C320.47437067 458.52050587 319.97161427 459.02486794 319.45362282 459.5445137 C318.04565354 460.95428794 316.63315235 462.35953156 315.22050476 463.76461792 C313.20470401 465.79392448 311.34247214 467.87673707 309.5 470.0625 C306.87775792 473.09907904 304.15179048 475.51174435 301 478 C300.195625 478.969375 299.39125 479.93875 298.5625 480.9375 C296.65039521 483.22269841 295.08003169 484.86026573 292.8125 486.6875 C289.87245245 488.87671725 289.87245245 488.87671725 288 492 C287.34 492 286.68 492 286 492 C285.67 492.99 285.34 493.98 285 495 C283.0625 497.1875 283.0625 497.1875 281 499 C280.34 499 279.68 499 279 499 C278.67 499.99 278.34 500.98 278 502 C276.0625 504.1875 276.0625 504.1875 274 506 C273.34 506 272.68 506 272 506 C271.34 507.32 270.68 508.64 270 510 C269.34 510 268.68 510 268 510 C267.67 510.99 267.34 511.98 267 513 C266.34 513 265.68 513 265 513 C264.34 514.32 263.68 515.64 263 517 C262.34 517 261.68 517 261 517 C260.731875 517.598125 260.46375 518.19625 260.1875 518.8125 C259.00082594 520.99847854 257.90400887 522.41332594 256 524 C255.34 524 254.68 524 254 524 C253.75505023 524.56958598 253.51010047 525.13917197 253.25772798 525.72601813 C251.77682976 528.4034935 250.03816197 530.21630282 247.87635231 532.38370991 C247.00747151 533.2596563 246.13859071 534.13560269 245.24338019 535.03809291 C244.27348225 536.00573949 243.30348685 536.97328838 242.33340454 537.94075012 C241.30703401 538.97157241 240.28109538 540.00282488 239.25555265 541.03447074 C236.43332661 543.8708937 233.60485258 546.70101379 230.7753005 549.53012598 C227.72601132 552.58106179 224.68244182 555.63769458 221.63807678 558.69354248 C214.98037363 565.37410274 208.3152067 572.04718331 201.64859438 578.71885133 C197.48874889 582.8819517 193.33053879 587.04668284 189.1726799 591.2117672 C177.66718311 602.73682748 166.16011013 614.26030726 154.64628029 625.77704334 C153.90942158 626.51408962 153.17256287 627.25113591 152.4133751 628.01051692 C150.91951236 629.50474592 149.42564833 630.99897365 147.93178304 632.4932001 C147.19020284 633.23496311 146.44862264 633.97672612 145.68457031 634.7409668 C144.57084606 635.85496187 144.57084606 635.85496187 143.43462233 636.9914619 C131.39044035 649.03918938 119.35805368 661.09862301 107.33079357 673.16324142 C94.9913194 685.54073772 82.64256809 697.90891255 70.28421915 710.267564 C63.34194192 717.21042702 56.40371047 724.15722934 49.47557449 731.11420631 C43.57935276 737.03485999 37.6746978 742.94693509 31.7587011 748.84783218 C28.73820606 751.86112581 25.72196978 754.87839071 22.71638298 757.9065609 C19.96850739 760.67488602 17.20949883 763.43156709 14.44090323 766.1791658 C13.43786414 767.17868304 12.43909277 768.18250385 11.44492657 769.1908469 C10.09988619 770.55383346 8.73806677 771.90020235 7.37532997 773.2454958 C6.24463016 774.37741729 6.24463016 774.37741729 5.09108794 775.53220588 C3 777 3 777 0.85686457 776.84155858 C-1.73351337 775.66756086 -3.34297137 774.03170096 -5.35333252 772.02088928 C-6.64894608 770.7357972 -6.64894608 770.7357972 -7.97073364 769.42474365 C-8.91976398 768.46828577 -9.86864194 767.51167666 -10.81738281 766.55493164 C-11.82225735 765.55248512 -12.82777698 764.55068491 -13.83389282 763.54948425 C-16.5636686 760.82911789 -19.2839372 758.09942391 -22.00234318 755.36770177 C-24.84564076 752.51309692 -27.69663731 749.66619996 -30.54656982 746.81822205 C-35.32989115 742.0357837 -40.10719394 737.24739768 -44.88085938 732.45532227 C-50.40612017 726.90887567 -55.94017809 721.37132988 -61.47915769 715.83858591 C-66.80188065 710.52154924 -72.11892792 705.19887353 -77.43318939 699.87338066 C-79.69779742 697.60411875 -81.96428992 695.33676367 -84.23227692 693.07087898 C-86.89956414 690.40546969 -89.56182898 687.73514421 -92.22022629 685.06086922 C-93.19891878 684.07791978 -94.17933159 683.09667991 -95.16154099 682.11724472 C-96.49717964 680.78480801 -97.82609543 679.44564218 -99.15460205 678.10609436 C-99.90158985 677.35705369 -100.64857765 676.60801302 -101.41820145 675.83627415 C-103 674 -103 674 -103 672 C-103.598125 671.731875 -104.19625 671.46375 -104.8125 671.1875 C-106.99847854 670.00082594 -108.41332594 668.90400887 -110 667 C-110 666.34 -110 665.68 -110 665 C-110.598125 664.731875 -111.19625 664.46375 -111.8125 664.1875 C-113.99847854 663.00082594 -115.41332594 661.90400887 -117 660 C-117 659.34 -117 658.68 -117 658 C-117.598125 657.731875 -118.19625 657.46375 -118.8125 657.1875 C-120.99847854 656.00082594 -122.41332594 654.90400887 -124 653 C-124 652.34 -124 651.68 -124 651 C-124.99 650.67 -125.98 650.34 -127 650 C-129.1875 648.0625 -129.1875 648.0625 -131 646 C-131 645.34 -131 644.68 -131 644 C-131.99 643.67 -132.98 643.34 -134 643 C-136.1875 641.0625 -136.1875 641.0625 -138 639 C-138 638.34 -138 637.68 -138 637 C-138.99 636.67 -139.98 636.34 -141 636 C-142.21870952 634.55072381 -143.43338784 633.09743372 -144.609375 631.61328125 C-146.78602313 629.08812485 -149.43918274 627.12493347 -152 625 C-153.33333333 623.33333333 -154.66666667 621.66666667 -156 620 C-156.969375 619.195625 -157.93875 618.39125 -158.9375 617.5625 C-162.06486774 614.94572291 -164.39530806 612.12563033 -167 609 C-167.99 608.175 -168.98 607.35 -170 606.5 C-173.11157653 603.90701956 -175.45064209 601.13767128 -178 598 C-179.65488854 596.32163786 -181.32399649 594.65727722 -183 593 C-184.16122064 591.82917971 -185.32130861 590.65723531 -186.48046875 589.484375 C-187.71610709 588.23954488 -188.95178482 586.99475385 -190.1875 585.75 C-190.81591797 585.11320313 -191.44433594 584.47640625 -192.09179688 583.8203125 C-192.69443359 583.21445312 -193.29707031 582.60859375 -193.91796875 581.984375 C-194.46219482 581.43491211 -195.0064209 580.88544922 -195.56713867 580.31933594 C-196.9838063 578.89273848 -196.9838063 578.89273848 -199 578 C-199 575 -199 575 -197.50003767 573.42111808 C-196.82171401 572.86920505 -196.14339034 572.31729203 -195.44451141 571.74865437 C-191.38964675 568.34790079 -187.623432 564.76667473 -183.88781738 561.02153015 C-183.2194465 560.35542483 -182.55107562 559.6893195 -181.86245108 559.00302917 C-179.64617194 556.79302914 -177.43343015 554.57952286 -175.22070312 552.3659668 C-173.62368285 550.77194155 -172.02645861 549.17812062 -170.42904663 547.58448792 C-166.10904335 543.2732871 -161.79225933 538.95887695 -157.47633553 534.6435926 C-154.78061576 531.94858467 -152.08418481 529.25429044 -149.38749695 526.56025124 C-140.46781304 517.64932763 -131.5501824 508.73635797 -122.63525373 499.82067754 C-122.15588367 499.34126753 -121.67651361 498.86185751 -121.18261719 498.36791992 C-120.70266161 497.88792346 -120.22270603 497.407927 -119.72820634 496.91338519 C-111.92769317 489.11246445 -104.12218724 481.31656048 -96.31443983 473.52288093 C-88.29184784 465.51462999 -80.2730605 457.50258978 -72.25797606 449.48682338 C-67.76004181 444.98863358 -63.26055139 440.49202722 -58.75721741 435.99924278 C-54.53062924 431.78228772 -50.30880434 427.56062305 -46.0906868 423.33519554 C-44.5379268 421.78138419 -42.98343913 420.22929723 -41.42715073 418.67901993 C-39.31224537 416.57175897 -37.20351596 414.45851099 -35.09631348 412.34355164 C-34.47143681 411.72381853 -33.84656014 411.10408543 -33.20274782 410.46557254 C-30.06013955 407.74145856 -30.06013955 407.74145856 -29 404 C-30.43927166 402.79502837 -31.8827805 401.59460073 -33.3515625 400.42578125 C-35.88700463 398.23280405 -37.8631146 395.57522087 -40 393 C-40.78375 392.38125 -41.5675 391.7625 -42.375 391.125 C-44.59127698 389.33087102 -46.16405395 387.71324389 -47.98046875 385.5546875 C-52.69690825 380.10400376 -57.82063768 375.07079579 -62.9375 370 C-63.9175531 369.02497614 -64.8973724 368.0497172 -65.87695312 367.07421875 C-68.24902313 364.71383382 -70.6234086 362.35583095 -73 360 C-75.81983465 361.28495626 -77.87423725 362.62447144 -80.06160569 364.8132087 C-80.64396175 365.39107017 -81.2263178 365.96893163 -81.82632101 366.56430405 C-82.77316619 367.51903028 -82.77316619 367.51903028 -83.73913956 368.4930439 C-84.75908683 369.50952964 -84.75908683 369.50952964 -85.79963911 370.54655045 C-88.09339737 372.83498447 -90.37990994 375.13052568 -92.66656494 377.42605591 C-94.31951021 379.0781296 -95.97289466 380.72976398 -97.62668204 382.38099468 C-101.70445102 386.45474766 -105.7775307 390.53314715 -109.84870039 394.61349437 C-114.72407528 399.49933207 -119.60525172 404.37935785 -124.48666066 409.25916574 C-133.49552724 418.26540288 -142.49972644 427.27629273 -151.50128937 436.28982925 C-160.41600094 445.21636852 -169.33277185 454.14084235 -178.25231171 463.06255722 C-178.80657546 463.61695845 -179.36083921 464.17135969 -179.93189884 464.74256096 C-182.7466516 467.55799037 -185.5614413 470.37338284 -188.37624523 473.1887611 C-208.32156359 493.13828203 -228.26223944 513.09243749 -248.20019531 533.04931641 C-267.57154691 552.43903208 -286.94499467 571.82664942 -306.32128906 591.21142578 C-306.91838532 591.80878509 -307.51548158 592.40614441 -308.13067167 593.02160552 C-314.12687427 599.02044512 -320.12311956 605.01924205 -326.11939614 611.01800771 C-338.33487009 623.23855429 -350.55005903 635.45938574 -362.76507568 647.6803894 C-363.32672209 648.24231039 -363.8883685 648.80423138 -364.4670345 649.38318028 C-401.98279728 686.91734926 -439.49189462 724.45817912 -477 762 C-478.11735196 761.04794108 -479.23389809 760.09493639 -480.35010624 759.14153671 C-481.28290145 758.34563334 -481.28290145 758.34563334 -482.234541 757.53365111 C-484.42576922 755.63013503 -486.50062898 753.633631 -488.55834961 751.58691406 C-489.37867172 750.7729718 -490.19899384 749.95902954 -491.04417419 749.12042236 C-492.33521812 747.83104767 -492.33521812 747.83104767 -493.65234375 746.515625 C-495.00254356 745.17041779 -495.00254356 745.17041779 -496.38002014 743.79803467 C-498.26972655 741.91336764 -500.15827967 740.02761953 -502.04516602 738.14013672 C-504.46678591 735.71841429 -506.8952685 733.30369818 -509.32547665 730.8905983 C-511.64723423 728.58258099 -513.9618537 726.26742749 -516.27734375 723.953125 C-517.58964211 722.65160492 -517.58964211 722.65160492 -518.92845154 721.3237915 C-519.72670853 720.52245789 -520.52496552 719.72112427 -521.34741211 718.89550781 C-522.05465927 718.18968567 -522.76190643 717.48386353 -523.49058533 716.75665283 C-525 715 -525 715 -525 713 C-523.50093219 711.52004379 -523.50093219 711.52004379 -521.44610167 709.81341118 C-517.3981388 706.36857432 -513.611254 702.75041772 -509.86237335 698.98542118 C-509.18792337 698.31212504 -508.51347338 697.6388289 -507.81858552 696.94512984 C-505.57008407 694.69926512 -503.325153 692.44986621 -501.0802002 690.20045471 C-499.44833774 688.56902856 -497.81625546 686.93782228 -496.18397284 685.30681652 C-491.70757899 680.832656 -487.23430469 676.35538792 -482.76153708 671.8776027 C-478.43076478 667.54246088 -474.09714247 663.21016896 -469.76382454 658.87757201 C-460.90287862 650.01793812 -452.04425681 641.15598386 -443.18696594 632.292696 C-434.41955263 623.5193618 -425.65110257 614.7470659 -416.88127136 605.97614861 C-416.33560065 605.43040915 -415.78992993 604.8846697 -415.22772374 604.32239268 C-412.45643241 601.55076301 -409.68512259 598.77915181 -406.91380566 596.00754773 C-387.29437696 576.38601968 -367.67726679 556.76217514 -348.06152344 537.13696289 C-329.00736057 518.07361285 -309.95214553 499.01131553 -290.89550781 479.95043945 C-290.30790199 479.36270211 -289.72029617 478.77496476 -289.11488412 478.16941719 C-283.21380097 472.2670155 -277.31269645 466.36463517 -271.41157628 460.4622705 C-259.39075614 448.43891427 -247.37007859 436.41541548 -235.3494873 424.39183044 C-234.79682299 423.83902884 -234.24415867 423.28622723 -233.67474695 422.71667406 C-196.7807752 385.81350462 -159.89013803 348.90700177 -123 312 C-124.61226628 308.59398288 -126.39760088 306.35927099 -129.08251953 303.69042969 C-129.92324005 302.84986023 -130.76396057 302.00929077 -131.63015747 301.14324951 C-132.53853363 300.24519592 -133.44690979 299.34714233 -134.3828125 298.421875 C-135.31221649 297.4953009 -136.24162048 296.56872681 -137.19918823 295.61407471 C-139.6640385 293.15684211 -142.13483666 290.70567639 -144.60693359 288.2557373 C-147.13090765 285.75226191 -149.64919388 283.24307937 -152.16796875 280.734375 C-157.10643597 275.81732475 -162.051212 270.90666212 -167 266 C-169.81983465 267.28495626 -171.87423725 268.62447144 -174.06160569 270.8132087 C-174.64396175 271.39107017 -175.2263178 271.96893163 -175.82632101 272.56430405 C-176.45755113 273.2007882 -177.08878125 273.83727235 -177.73913956 274.4930439 C-178.41910441 275.17070106 -179.09906926 275.84835822 -179.79963911 276.54655045 C-182.09339737 278.83498447 -184.37990994 281.13052568 -186.66656494 283.42605591 C-188.31951021 285.0781296 -189.97289466 286.72976398 -191.62668204 288.38099468 C-195.70445102 292.45474766 -199.7775307 296.53314715 -203.84870039 300.61349437 C-208.72407528 305.49933207 -213.60525172 310.37935785 -218.48666066 315.25916574 C-227.49552724 324.26540288 -236.49972644 333.27629273 -245.50128937 342.28982925 C-254.41600094 351.21636852 -263.33277185 360.14084235 -272.25231171 369.06255722 C-272.80657546 369.61695845 -273.36083921 370.17135969 -273.93189884 370.74256096 C-276.7466516 373.55799037 -279.5614413 376.37338284 -282.37624523 379.1887611 C-302.32156359 399.13828203 -322.26223944 419.09243749 -342.20019531 439.04931641 C-361.57154691 458.43903208 -380.94499467 477.82664942 -400.32128906 497.21142578 C-400.91838532 497.80878509 -401.51548158 498.40614441 -402.13067167 499.02160552 C-408.12687427 505.02044512 -414.12311956 511.01924205 -420.11939614 517.01800771 C-432.33487009 529.23855429 -444.55005903 541.45938574 -456.76507568 553.6803894 C-457.32672209 554.24231039 -457.8883685 554.80423138 -458.4670345 555.38318028 C-495.98279728 592.91734926 -533.49189462 630.45817912 -571 668 C-572.1179256 667.04677897 -573.2351411 666.09272511 -574.35205841 665.13832283 C-575.28539717 664.34152459 -575.28539717 664.34152459 -576.23759127 663.52862942 C-578.39249004 661.65957282 -580.44685476 659.70851534 -582.48242188 657.71044922 C-583.28595093 656.92298309 -584.08947998 656.13551697 -584.9173584 655.32418823 C-588.50686031 651.77955295 -592.09414248 648.23278188 -595.67285156 644.67724609 C-597.56687798 642.79990281 -599.4643347 640.92729045 -601.37011719 639.06201172 C-604.12340394 636.3631471 -606.86019127 633.64851406 -609.59375 630.9296875 C-610.45190308 630.0942038 -611.31005615 629.25872009 -612.19421387 628.3979187 C-612.97252563 627.6167569 -613.7508374 626.83559509 -614.55273438 626.03076172 C-615.5902887 625.00533768 -615.5902887 625.00533768 -616.64880371 623.959198 C-618 622 -618 622 -617.83900338 620.15531904 C-616.72280266 617.28790669 -615.10456128 615.73115616 -612.92714214 613.55569732 C-612.04216608 612.6642356 -611.15719002 611.77277388 -610.24539649 610.85429817 C-609.25021022 609.86709856 -608.25488806 608.8800359 -607.25944519 607.89309502 C-606.20739825 606.83913352 -605.15601046 605.78451374 -604.10522568 604.72929388 C-601.19734316 601.81300205 -598.28012199 598.90620761 -595.36138357 596.00078635 C-592.19470857 592.84528069 -589.03671972 589.68110288 -585.87765026 586.51798642 C-580.33368594 580.96933254 -574.78415521 575.4262947 -569.23099899 569.88684082 C-560.97354525 561.64970559 -552.72467741 553.40401278 -544.47760406 545.15648624 C-530.60567521 531.28426394 -516.72683334 517.41897754 -502.84414673 503.55752182 C-489.09242297 489.82675454 -475.3440081 476.09268744 -461.59994507 462.35425186 C-460.74616932 461.50082745 -459.89239356 460.64740304 -459.01274582 459.76811729 C-454.67704533 455.4341596 -450.34140948 451.10013724 -446.00580204 446.76608647 C-415.27495371 416.04643544 -384.5375307 385.33337082 -353.79589844 354.62451172 C-346.3423885 347.17893314 -338.88888582 339.73334728 -331.4354248 332.28771973 C-330.51082913 331.36409596 -329.58623346 330.4404722 -328.63361973 329.48885983 C-307.15511707 308.03282005 -285.67925076 286.57414226 -264.20410156 265.11474609 C-262.82421578 263.73587678 -262.82421578 263.73587678 -261.41645353 262.32915152 C-240.42592582 241.35405852 -219.43613687 220.37822646 -198.44728088 199.40146065 C-197.56587499 198.52056455 -196.6844691 197.63966845 -195.77635393 196.73207853 C-187.84892478 188.80923225 -179.92149955 180.88638204 -171.99419796 172.96340813 C-151.34951235 152.33002058 -130.70259085 131.69887601 -110.0517714 111.07162739 C-97.1041421 98.1387098 -84.15812298 85.20418192 -71.21339679 72.26835857 C-63.00797489 64.06872177 -54.80108645 55.8705587 -46.59219122 47.67439914 C-41.11867501 42.20911494 -35.64693396 36.7420579 -30.17666459 31.27352391 C-27.05351203 28.15147506 -23.92953955 25.03025809 -20.80337656 21.9112234 C-17.96504208 19.07933752 -15.12897294 16.24520422 -12.2947688 13.40918479 C-11.27007277 12.38465484 -10.24451872 11.36098223 -9.21804954 10.3382288 C-7.83402861 8.9589818 -6.45334015 7.57639315 -5.07285786 6.19360435 C-4.30456506 5.42613875 -3.53627226 4.65867316 -2.74469787 3.86795103 C-0.93612961 2.10867286 -0.93612961 2.10867286 0 0 Z " fill="#FA4300" transform="translate(1169,344)"/>
<path d="M0 0 C3.46983891 1.64017522 5.75849682 3.50014312 8.49316406 6.21850586 C9.37377502 7.08958481 10.25438599 7.96066376 11.16168213 8.85813904 C12.11332615 9.81004441 13.06463252 10.76228746 14.015625 11.71484375 C14.99617924 12.69150987 15.97695646 13.66795218 16.95794678 14.6441803 C19.00891422 16.68769774 21.05597782 18.73503276 23.10058594 20.78491211 C25.72402475 23.4141613 28.35868856 26.03183469 30.99658585 28.64656734 C33.02292215 30.65819531 35.04231415 32.67668235 37.05974579 34.69723701 C38.02866929 35.66564641 38.99996524 36.63168802 39.97364044 37.59531975 C41.33103448 38.9404163 42.67799437 40.296018 44.02441406 41.65209961 C44.79400452 42.42106064 45.56359497 43.19002167 46.35650635 43.98228455 C48 46 48 46 48 49 C46.56352234 50.5153656 46.56352234 50.5153656 44.55737305 52.13842773 C39.81194978 56.1182228 35.45373893 60.40201868 31.08203125 64.78515625 C30.26175949 65.60447128 29.44148773 66.42378632 28.59635925 67.26792908 C26.87494137 68.9886706 25.15476902 70.71065898 23.43579102 72.43383789 C20.8131358 75.0618629 18.18516792 77.68449027 15.55664062 80.30664062 C13.87728334 81.98665852 12.19823617 83.66698649 10.51953125 85.34765625 C9.7392305 86.12593277 8.95892975 86.90420929 8.15498352 87.70606995 C5.0320852 90.84236878 1.96021775 93.95810444 -0.8449707 97.38452148 C-3.28708297 100.34842187 -6.05377038 102.54480865 -9 105 C-10.67067133 106.99665598 -12.33752986 108.99651034 -14 111 C-15.66666667 112.33333333 -17.33333333 113.66666667 -19 115 C-19.804375 115.969375 -20.60875 116.93875 -21.4375 117.9375 C-23.34960479 120.22269841 -24.91996831 121.86026573 -27.1875 123.6875 C-30.12754755 125.87671725 -30.12754755 125.87671725 -32 129 C-32.66 129 -33.32 129 -34 129 C-34.33 129.99 -34.66 130.98 -35 132 C-36.9375 134.1875 -36.9375 134.1875 -39 136 C-39.66 136 -40.32 136 -41 136 C-41.33 136.99 -41.66 137.98 -42 139 C-43.9375 141.1875 -43.9375 141.1875 -46 143 C-46.66 143 -47.32 143 -48 143 C-48.33 143.99 -48.66 144.98 -49 146 C-50.9375 148.1875 -50.9375 148.1875 -53 150 C-53.66 150 -54.32 150 -55 150 C-55.66 151.32 -56.32 152.64 -57 154 C-57.66 154 -58.32 154 -59 154 C-59.33 154.99 -59.66 155.98 -60 157 C-60.66 157 -61.32 157 -62 157 C-62.66 158.32 -63.32 159.64 -64 161 C-64.66 161 -65.32 161 -66 161 C-66.33 161.99 -66.66 162.98 -67 164 C-67.66 164 -68.32 164 -69 164 C-69.66 165.32 -70.32 166.64 -71 168 C-71.66 168 -72.32 168 -73 168 C-73.23505607 168.55998035 -73.47011214 169.11996069 -73.71229112 169.69691014 C-75.31503615 172.56344767 -77.27819409 174.52637508 -79.60334206 176.84943771 C-80.076706 177.32510935 -80.55006995 177.80078098 -81.03777826 178.29086691 C-82.63127833 179.88967692 -84.23183449 181.48123066 -85.83242798 183.07293701 C-86.98540076 184.22678165 -88.13793406 185.38106557 -89.29006422 186.53575158 C-92.46209722 189.71226591 -95.64034843 192.88249481 -98.81962538 196.05175662 C-102.24518294 199.46869331 -105.66497533 202.89139126 -109.08546448 206.31340027 C-115.0140843 212.2430698 -120.94636081 218.16906066 -126.88112259 224.0925827 C-135.46183145 232.65705126 -144.03702544 241.22702405 -152.61087482 249.79835895 C-166.52085475 263.70395947 -180.435297 277.60508594 -194.35253906 291.50341797 C-207.87343373 305.0059602 -221.3922304 318.51059725 -234.90820312 332.01806641 C-235.74104944 332.85038728 -236.57389576 333.68270815 -237.43197985 334.54025087 C-241.61002884 338.71568982 -245.78803653 342.89117008 -249.96602368 347.06667089 C-284.63761538 381.71752243 -319.31644676 416.36112158 -354 451 C-357.46983891 449.35982478 -359.75849682 447.49985688 -362.49316406 444.78149414 C-363.37377502 443.91041519 -364.25438599 443.03933624 -365.16168213 442.14186096 C-366.11332615 441.18995559 -367.06463252 440.23771254 -368.015625 439.28515625 C-368.99617924 438.30849013 -369.97695646 437.33204782 -370.95794678 436.3558197 C-373.00891422 434.31230226 -375.05597782 432.26496724 -377.10058594 430.21508789 C-379.72402475 427.5858387 -382.35868856 424.96816531 -384.99658585 422.35343266 C-387.02292215 420.34180469 -389.04231415 418.32331765 -391.05974579 416.30276299 C-392.02866929 415.33435359 -392.99996524 414.36831198 -393.97364044 413.40468025 C-395.33103448 412.0595837 -396.67799437 410.703982 -398.02441406 409.34790039 C-398.79400452 408.57893936 -399.56359497 407.80997833 -400.35650635 407.01771545 C-402 405 -402 405 -402 402 C-401.34 402 -400.68 402 -400 402 C-399.67 401.01 -399.34 400.02 -399 399 C-397.0625 396.8125 -397.0625 396.8125 -395 395 C-394.34 395 -393.68 395 -393 395 C-392.67 394.01 -392.34 393.02 -392 392 C-390.0625 389.8125 -390.0625 389.8125 -388 388 C-387.34 388 -386.68 388 -386 388 C-385.67 387.01 -385.34 386.02 -385 385 C-383.0625 382.8125 -383.0625 382.8125 -381 381 C-380.34 381 -379.68 381 -379 381 C-378.01 379.02 -378.01 379.02 -377 377 C-376.34 377 -375.68 377 -375 377 C-374.67 376.01 -374.34 375.02 -374 374 C-373.34 374 -372.68 374 -372 374 C-371.731875 373.401875 -371.46375 372.80375 -371.1875 372.1875 C-370.00082594 370.00152146 -368.90400887 368.58667406 -367 367 C-366.34 367 -365.68 367 -365 367 C-364.79200102 366.46707675 -364.58400205 365.93415349 -364.36970007 365.38508105 C-362.44983919 362.04199602 -359.80222176 359.53138718 -357.08479881 356.83870316 C-356.46961148 356.22120813 -355.85442414 355.60371311 -355.22059476 354.96750611 C-353.14466249 352.88625296 -351.061635 350.81224795 -348.97860718 348.73809814 C-347.47915111 347.23777044 -345.98013441 345.73700353 -344.48152125 344.23583388 C-340.35176119 340.1015881 -336.21576768 335.97362732 -332.07876348 331.84663224 C-327.6225246 327.39900792 -323.17204392 322.94562843 -318.72087097 318.49293518 C-311.00465429 310.77566838 -303.28481211 303.0620464 -295.56241989 295.35095978 C-287.46204182 287.26241034 -279.36373035 279.17180103 -271.26817703 271.07842255 C-270.76507063 270.57545362 -270.26196423 270.0724847 -269.74361218 269.5542743 C-267.18866443 267.0000032 -264.63375361 264.44569516 -262.07885702 261.89137289 C-243.97616512 243.79288331 -225.86883933 225.69903641 -207.75878906 207.60791016 C-190.16366942 190.03115527 -172.57064874 172.45230383 -154.98046875 154.87060547 C-154.43838951 154.32878928 -153.89631026 153.78697309 -153.33780438 153.22873822 C-147.89409057 147.78766142 -142.45041944 142.34654193 -137.00677958 136.90539114 C-125.91717142 125.82085559 -114.82727839 114.73660507 -103.73721313 103.65252686 C-103.22729524 103.14288354 -102.71737734 102.63324022 -102.19200738 102.10815316 C-68.13277601 68.06732728 -34.06688375 34.03316746 0 0 Z " fill="#FD1E01" transform="translate(859,467)"/>
<path d="M0 0 C1.03688965 0.32943604 1.03688965 0.32943604 2.09472656 0.66552734 C14.92813663 4.88068504 27.3050577 10.36363741 37 20 C37.47050781 18.87980469 37.94101563 17.75960938 38.42578125 16.60546875 C39.05430867 15.13265077 39.68323588 13.66000337 40.3125 12.1875 C40.62123047 11.44951172 40.92996094 10.71152344 41.24804688 9.95117188 C41.70727539 8.88286133 41.70727539 8.88286133 42.17578125 7.79296875 C42.45333252 7.1383667 42.73088379 6.48376465 43.0168457 5.80932617 C44.81651021 2.49735357 46.41550506 1.19483165 50 0 C52.61864161 -0.1484944 55.1932477 -0.2310027 57.8125 -0.25 C58.51181641 -0.270625 59.21113281 -0.29125 59.93164062 -0.3125 C64.72690523 -0.34838598 68.00884906 0.31981105 72 3 C74.61689428 6.60771144 75.37584537 9.12056913 75.38311005 13.54918575 C75.39216669 14.6596772 75.40122333 15.77016865 75.41055441 16.91431135 C75.40522648 18.12908503 75.39989856 19.34385872 75.39440918 20.59544373 C75.40050028 21.88996855 75.40659139 23.18449338 75.41286707 24.51824623 C75.42927974 28.10972965 75.42694604 31.70099375 75.4214921 35.29250157 C75.41882354 39.1664844 75.43335035 43.04040854 75.44558716 46.91436768 C75.46665026 54.50305776 75.47118153 62.09167145 75.46939927 69.68038731 C75.46809217 75.8477514 75.47189314 82.01509164 75.47932434 88.18245125 C75.48142351 89.95825658 75.48352111 91.73406191 75.48561716 93.50986725 C75.48666069 94.39370337 75.48770422 95.27753949 75.48877937 96.18815852 C75.50768505 112.90681299 75.50663044 129.62542359 75.49981004 146.34408433 C75.49423344 161.64281676 75.51506436 176.9413818 75.54817051 192.2400751 C75.58189266 207.94518916 75.59707774 223.65022298 75.59245348 239.35537392 C75.59020741 248.17409064 75.59547213 256.9926526 75.62034607 265.81133842 C75.6413401 273.31842941 75.6449701 280.82528078 75.62604648 288.33238154 C75.61687704 292.16309916 75.61578194 295.99336979 75.63640213 299.82405281 C75.65850241 303.97557582 75.6419242 308.12604158 75.62145996 312.27757263 C75.63397781 313.49011559 75.64649566 314.70265856 75.65939283 315.95194525 C75.56308675 325.03243211 75.56308675 325.03243211 72.64865875 328.73265171 C68.52362885 332.26382743 64.88431898 332.18257158 59.69921875 332.23828125 C58.98522415 332.246353 58.27122955 332.25442474 57.53559875 332.26274109 C56.0251405 332.2765588 54.51465132 332.28729129 53.00415039 332.29516602 C51.46499435 332.30668252 49.92587814 332.32712948 48.38696289 332.35668945 C46.15744013 332.39950509 43.92910232 332.41555322 41.69921875 332.42578125 C41.01776291 332.44328934 40.33630707 332.46079742 39.63420105 332.47883606 C34.6394075 332.45637408 31.79962933 331.19542195 28 328 C26.13568745 325.01020395 25.74483441 322.72516134 25.7215271 319.22906494 C25.71036362 318.27276688 25.69920013 317.31646881 25.68769836 316.33119202 C25.68553818 315.28893967 25.68337799 314.24668732 25.68115234 313.17285156 C25.66608391 311.51874519 25.66608391 311.51874519 25.65071106 309.83122253 C25.61980721 306.18436202 25.60282369 302.53757516 25.5859375 298.890625 C25.56723167 296.36284752 25.54765871 293.83507633 25.5272522 291.30731201 C25.48111643 285.33279617 25.44373042 279.35828746 25.41057932 273.3836906 C25.37234414 266.58076652 25.32293766 259.7779379 25.27259517 252.97509432 C25.1693043 238.98346704 25.08003468 224.99177825 25 211 C23.85474854 211.54994629 22.70949707 212.09989258 21.52954102 212.66650391 C20.00026281 213.39506682 18.47087891 214.12340791 16.94140625 214.8515625 C16.18976196 215.2132251 15.43811768 215.5748877 14.66369629 215.94750977 C-10.24357115 227.7708784 -39.97993546 227.93726722 -65.81201172 218.84960938 C-76.63718932 214.64612599 -86.30696406 208.67432079 -95 201 C-96.06109526 200.16487873 -97.12341884 199.33131341 -98.1875 198.5 C-101.82905986 195.2630579 -104.91872578 191.76810222 -108 188 C-108.70253906 187.14664062 -109.40507813 186.29328125 -110.12890625 185.4140625 C-131.16435604 158.70818711 -137.83824484 125.44712855 -134.05444336 92.03369141 C-130.08864554 61.53796259 -115.10625645 33.85811821 -90.93359375 14.55078125 C-64.88049253 -4.27777902 -30.76967694 -9.78094248 0 0 Z M-68.75 60.33203125 C-84.05503553 78.48018971 -87.70660964 98.92454467 -86 122 C-83.8309044 139.34191929 -73.71463048 154.5848005 -60.6875 165.8125 C-47.41125954 176.1343615 -32.73822971 180.32382532 -16 179 C0.07573896 176.8465521 13.58229628 170.94513581 27 162 C27.30762202 159.29132313 27.41980598 156.80942246 27.40405273 154.09716797 C27.41091599 153.28067276 27.41777924 152.46417755 27.42485046 151.62294006 C27.44321105 148.91251418 27.43926551 146.2026625 27.43359375 143.4921875 C27.4381535 141.60848807 27.44345845 139.7247903 27.44947815 137.84109497 C27.45842918 133.88488021 27.45596634 129.92886705 27.44604492 125.97265625 C27.43459531 120.91527199 27.45469475 115.8585901 27.48396206 110.80129814 C27.50236521 106.9063579 27.50202268 103.01158432 27.49632454 99.11661148 C27.4961716 97.25318548 27.50219338 95.38974798 27.51461601 93.52636337 C27.52958931 90.9102041 27.51880053 88.29532019 27.50170898 85.67919922 C27.51137695 84.91629074 27.52104492 84.15338226 27.53100586 83.36735535 C27.38697611 72.77383049 21.00073978 66.31241656 14 59 C13.14921875 58.03707031 13.14921875 58.03707031 12.28125 57.0546875 C4.02119459 48.02531321 -7.87687162 42.2099967 -20.11328125 41.56640625 C-21.84619508 41.54288849 -23.57954732 41.5420441 -25.3125 41.5625 C-26.68716431 41.57494751 -26.68716431 41.57494751 -28.08959961 41.58764648 C-44.18569491 41.98632456 -57.72124712 48.64932988 -68.75 60.33203125 Z " fill="#000000" transform="translate(1030,1325)"/>
<path d="M0 0 C1.19625 -0.01289062 2.3925 -0.02578125 3.625 -0.0390625 C8.00731726 0.823199 9.12011472 2.22959843 12 5.625 C13.60985753 8.44945206 14.88474332 11.38713796 16.16015625 14.375 C16.73360275 15.67853676 16.73360275 15.67853676 17.31863403 17.00840759 C18.57735847 19.87602544 19.8197267 22.75043782 21.0625 25.625 C21.94773346 27.64841129 22.83422933 29.6712707 23.72192383 31.69360352 C25.56791687 35.90183716 27.40843176 40.11240319 29.24511719 44.32470703 C33.10101375 53.15705334 37.02084406 61.96084956 40.94171143 70.76449585 C42.18420601 73.5551018 43.42512363 76.34640357 44.66552734 79.13793945 C50.32347547 91.86996883 55.99910311 104.59404688 61.6875 117.3125 C62.24055313 118.5495015 62.24055313 118.5495015 62.80477905 119.81149292 C63.83155579 122.10764207 64.85899069 124.40349527 65.88671875 126.69921875 C66.18984985 127.37708435 66.49298096 128.05494995 66.80529785 128.75335693 C68.35409627 132.21199292 68.35409627 132.21199292 70 135.625 C70.41770157 134.10999908 70.41770157 134.10999908 70.84384155 132.56439209 C73.51870695 122.86285056 76.19394484 113.1614118 78.86951256 103.46006393 C80.24375053 98.47716789 81.61787433 93.49424042 82.99169922 88.51123047 C83.25584499 87.55320778 83.51999077 86.59518509 83.79214096 85.60813141 C84.32410047 83.67870118 84.85599384 81.74925273 85.3878212 79.81978607 C86.71086693 75.02078333 88.03583306 70.22232522 89.36468506 65.42492676 C91.66105747 57.13075522 93.95150973 48.83572834 96.17872429 40.52267075 C97.08038919 37.16055846 97.99073329 33.8008274 98.90205765 30.44132233 C99.32163942 28.88473368 99.73687041 27.32696473 100.14741135 25.76796722 C100.70920459 23.63547538 101.28577102 21.50749571 101.86572266 19.37988281 C102.18336578 18.1890509 102.50100891 16.99821899 102.82827759 15.77130127 C104.31265295 11.78546636 106.28563206 8.80732272 109.8125 6.375 C116.75186155 3.99579033 124.32386351 4.4087269 131.5625 4.375 C133.22829102 4.3440625 133.22829102 4.3440625 134.92773438 4.3125 C145.27898052 4.26294287 145.27898052 4.26294287 150 7.625 C152.34713648 11.14570471 152.29489732 12.48305387 152 16.625 C151.33351135 19.44656372 151.33351135 19.44656372 150.38500977 22.39892578 C150.03107651 23.51766083 149.67714325 24.63639587 149.31248474 25.78903198 C148.92190384 26.99560455 148.53132294 28.20217712 148.12890625 29.4453125 C147.71833817 30.73658178 147.30882099 32.02818561 146.90028381 33.32009888 C146.25778543 35.35148108 145.61466384 37.38264281 144.96850109 39.41286278 C142.85178486 46.06493359 140.80303675 52.73702445 138.76698875 59.41415596 C138.1432369 61.45955051 137.51834264 63.50459293 136.8931427 65.54954529 C135.80094039 69.12242163 134.7097132 72.69559489 133.6187706 76.26885605 C132.92450568 78.54255607 132.22994645 80.81616601 131.53530884 83.0897522 C125.85692466 101.67620171 120.19336435 120.26711698 114.546875 138.86328125 C114.14650874 140.18175049 114.14650874 140.18175049 113.73805428 141.52685547 C111.38413103 149.27896753 109.03045044 157.03115291 106.68014526 164.78436279 C106.18967976 166.40230392 105.69921145 168.0202442 105.20874023 169.63818359 C104.96952441 170.42730762 104.73030859 171.21643166 104.4838438 172.02946854 C102.64930736 178.07908901 100.80762322 184.12651272 98.9626894 190.17296982 C97.64638205 194.49058931 96.3417187 198.811525 95.04577541 203.13529873 C94.22603793 205.86445736 93.39870586 208.59127313 92.56957436 211.31759071 C92.00444613 213.18486975 91.44900007 215.0550705 90.8938446 216.92533875 C90.55545059 218.03319229 90.21705658 219.14104584 89.8684082 220.2824707 C89.57827347 221.24739944 89.28813873 222.21232819 88.98921204 223.20649719 C87.97423393 225.68799489 87.06418493 226.94854662 85 228.625 C80.25046809 230.55999448 74.94818854 230.14363938 70.109375 228.85546875 C65.13430161 225.2866661 63.51681931 220.20270935 61.125 214.6875 C60.56501383 213.43494821 60.00328004 212.1831765 59.43994141 210.93212891 C57.91885875 207.54137884 56.42165853 204.14056417 54.92895508 200.73724365 C53.38731517 197.23188674 51.82575628 193.73543738 50.265625 190.23828125 C48.29396492 185.81479617 46.3251283 181.39011059 44.36572266 176.96118164 C39.1407301 165.15336496 33.83377815 153.38402806 28.5 141.625 C22.28420362 127.91747671 16.10896934 114.19299301 10 100.4375 C9.66234619 99.67751709 9.32469238 98.91753418 8.97680664 98.13452148 C5.94752056 91.31358771 2.92934488 84.48955575 0 77.625 C-5.10802992 87.62271791 -9.91401472 97.7007192 -14.41195679 107.98678589 C-20.50945527 121.92058531 -26.78833023 135.76495342 -33.1875 149.5625 C-38.45740631 160.93143562 -43.69520416 172.3114773 -48.8125 183.75 C-49.32458008 184.88928955 -49.83666016 186.0285791 -50.36425781 187.20239258 C-52.81864717 192.67789932 -55.24038126 198.16453807 -57.59376526 203.68411255 C-58.75088268 206.39195333 -59.9224967 209.09340397 -61.09555054 211.79437256 C-61.65010577 213.08245869 -62.19752533 214.37364404 -62.73721313 215.66802979 C-63.48276788 217.45549574 -64.25453507 219.2319597 -65.02734375 221.0078125 C-65.45781006 222.02246582 -65.88827637 223.03711914 -66.33178711 224.08251953 C-68.43821459 227.29287162 -70.4745676 228.22078502 -74 229.625 C-76.125 230.0234375 -76.125 230.0234375 -78 230 C-78.61875 230.00773437 -79.2375 230.01546875 -79.875 230.0234375 C-83.35878859 229.37022714 -85.07739943 228.79521051 -88 226.625 C-89.97153296 222.71646328 -91.0925528 218.56843257 -92.3125 214.375 C-92.72628365 213.0179535 -93.14239535 211.66161518 -93.56054688 210.3059082 C-94.51541693 207.19719149 -95.45621783 204.08460403 -96.38916016 200.96923828 C-98.15383944 195.09178991 -99.9719208 189.23128038 -101.79296875 183.37109375 C-104.68650744 174.05276211 -107.56896275 164.73110631 -110.44140625 155.40625 C-114.92091078 140.86902972 -119.42621508 126.33988443 -123.9375 111.8125 C-124.67978943 109.42147448 -125.4220583 107.03044257 -126.16430664 104.6394043 C-129.48524619 93.9421118 -132.80733614 83.24517665 -136.12972164 72.54833317 C-137.79746694 67.17872234 -139.46487674 61.80900738 -141.13208866 56.43923092 C-142.50477949 52.01816479 -143.8781808 47.59731974 -145.25170898 43.17651367 C-145.96861565 40.8676846 -146.68549534 38.55884716 -147.40234375 36.25 C-147.88392944 34.7008062 -147.88392944 34.7008062 -148.37524414 33.12031555 C-148.97108426 31.20043362 -149.56486249 29.27991012 -150.15621948 27.35864258 C-150.72845139 25.50475112 -151.30789524 23.65307327 -151.89382935 21.8034668 C-152.17064545 20.91570557 -152.44746155 20.02794434 -152.73266602 19.11328125 C-152.98009048 18.32993408 -153.22751495 17.54658691 -153.48243713 16.73950195 C-154.21767979 13.7356697 -153.99394104 11.53582734 -153 8.625 C-150.98814325 5.84672163 -149.30039361 5.23890688 -146 4.625 C-141.43536804 4.4248116 -136.86947629 4.43919408 -132.30102539 4.43969727 C-130.07353608 4.43751083 -127.84654242 4.41933572 -125.61914062 4.40039062 C-124.19531418 4.39745622 -122.7714854 4.39547174 -121.34765625 4.39453125 C-120.05867432 4.39042236 -118.76969238 4.38631348 -117.44165039 4.38208008 C-113.29383381 4.6748429 -110.35619022 5.13020493 -107.49534607 8.28343201 C-105.62689077 11.20925313 -104.80400643 13.9867672 -103.84619141 17.32568359 C-103.65182149 17.99448233 -103.45745157 18.66328106 -103.25719166 19.35234642 C-102.61383175 21.57378285 -101.98268346 23.79849583 -101.3515625 26.0234375 C-100.89826298 27.59820827 -100.44423284 29.1727689 -99.98951721 30.74713135 C-98.77532552 34.95911306 -97.57171606 39.17405098 -96.37017441 43.38965607 C-95.13091778 47.73076867 -93.88181855 52.06904772 -92.6340332 56.40771484 C-86.5538839 77.56810702 -80.52010555 98.74262529 -74.59423828 119.94677734 C-74.35100327 120.8149408 -74.10776825 121.68310425 -73.85716248 122.57757568 C-73.41415641 124.15979204 -72.97282321 125.74247826 -72.53358459 127.32574463 C-71.50148047 131.06210838 -71.50148047 131.06210838 -70 134.625 C-63.15601426 120.00905869 -56.39029773 105.36717409 -49.86743164 90.60449219 C-46.86003858 83.80213624 -43.83018019 77.01077511 -40.7734375 70.23046875 C-40.40183502 69.40604782 -40.03023254 68.58162689 -39.64736938 67.73222351 C-38.10953076 64.32155545 -36.57110291 60.91115796 -35.03009033 57.50192261 C-30.8507103 48.25530069 -26.70736598 38.99692197 -22.6875 29.6796875 C-22.00505486 28.10485979 -21.32252096 26.53007055 -20.63989258 24.95532227 C-19.3662222 22.01588658 -18.10803828 19.07046395 -16.8581543 16.12084961 C-16.28491971 14.7951604 -15.71113924 13.46970704 -15.13671875 12.14453125 C-14.64905029 11.00089111 -14.16138184 9.85725098 -13.65893555 8.67895508 C-10.24020608 2.38537349 -7.19181486 -0.077498 0 0 Z " fill="#000000" transform="translate(312,1320.375)"/>
<path d="M0 0 C1.63195206 1.34578038 3.25713818 2.69981313 4.875 4.0625 C6.01775391 5.00222656 6.01775391 5.00222656 7.18359375 5.9609375 C13.19796509 11.06846256 18.08480974 16.80790536 22.875 23.0625 C23.48214844 23.84238281 24.08929687 24.62226562 24.71484375 25.42578125 C42.73035392 49.73242196 48.49566913 81.11564872 44.15234375 110.76953125 C38.76779474 141.47065516 21.58762164 170.01321885 -4.125 188.0625 C-20.71252589 198.89740531 -39.19449697 206.06748245 -59.125 207.0625 C-60.60419922 207.14177734 -60.60419922 207.14177734 -62.11328125 207.22265625 C-89.95494318 207.9751336 -116.10693761 199.49939683 -137.125 181.0625 C-137.88039063 180.43859375 -138.63578125 179.8146875 -139.4140625 179.171875 C-145.4442344 174.07420391 -150.33600432 168.32435439 -155.125 162.0625 C-155.73214844 161.27101563 -156.33929688 160.47953125 -156.96484375 159.6640625 C-175.65372417 134.15225749 -181.85511014 103.0769766 -177.30029297 71.95239258 C-172.00426176 41.62673338 -154.82330535 15.16486446 -129.93212891 -2.69433594 C-90.75497279 -29.64517071 -37.58161468 -29.46674842 0 0 Z M-113.125 43.0625 C-126.69843522 58.46629239 -132.04358792 76.65812713 -131.25683594 97.00683594 C-130.03424057 116.07026746 -122.20366856 132.40059478 -108.5625 145.8125 C-95.95868235 156.5599414 -79.90284868 161.83985905 -63.40234375 161.33984375 C-45.88474742 159.85742499 -30.30818088 152.55341234 -18.65625 139.2421875 C-5.74747124 122.76197995 -0.71005751 104.84541877 -2.125 84.0625 C-3.92301685 69.98983267 -8.39862419 58.23605511 -17.125 47.0625 C-17.89070313 46.03189453 -17.89070313 46.03189453 -18.671875 44.98046875 C-27.55195887 33.8364031 -41.19619662 26.49256 -55.125 24.0625 C-77.94367992 22.52839297 -96.33040865 26.61586289 -113.125 43.0625 Z " fill="#000000" transform="translate(659.125,1342.9375)"/>
<path d="M0 0 C1.11503906 -0.00128906 2.23007813 -0.00257812 3.37890625 -0.00390625 C7.09883601 0.68496963 8.09224391 1.65014049 10.4375 4.5625 C10.94530869 6.9756279 10.94530869 6.9756279 10.95648193 9.71307373 C10.97039474 10.75351334 10.98430756 11.79395294 10.99864197 12.86592102 C10.9936116 14.00168076 10.98858124 15.13744049 10.98339844 16.30761719 C10.99373611 17.50789047 11.00407379 18.70816376 11.01472473 19.94480896 C11.03915876 23.23180905 11.04598944 26.51828109 11.04500484 29.80535412 C11.04813394 33.24208694 11.07375198 36.67865029 11.09698486 40.11529541 C11.13754891 46.62107314 11.15788644 53.12675063 11.17095876 59.63263535 C11.18682751 67.04017406 11.22524252 74.44754215 11.26555204 81.8549819 C11.34795644 97.09077055 11.40204507 112.32652539 11.4375 127.5625 C12.54736015 126.84062752 12.54736015 126.84062752 13.67964172 126.10417175 C14.6584581 125.47320084 15.63727448 124.84222992 16.64575195 124.19213867 C17.61253372 123.56651535 18.57931549 122.94089203 19.57539368 122.29631042 C23.44203123 119.95397379 27.36492575 118.34528303 31.625 116.875 C32.43163086 116.58737793 33.23826172 116.29975586 34.06933594 116.00341797 C63.41623183 105.78554033 95.77507673 104.50365006 124.4375 117.5625 C151.49299387 131.12207693 170.20221028 155.61717635 179.75 183.9375 C189.04657708 217.48781374 186.64734106 255.62117423 169.61914062 286.37939453 C155.46109031 310.62070657 134.32484042 328.07069503 107.125 335.375 C78.58671964 341.83506346 49.96079887 335.67953723 25.51171875 320.35546875 C19.6458399 316.56425863 14.29038489 312.62791999 9.4375 307.5625 C9.3873877 308.11711914 9.33727539 308.67173828 9.28564453 309.24316406 C9.05288326 311.76711964 8.80781964 314.28973539 8.5625 316.8125 C8.48386719 317.68519531 8.40523437 318.55789063 8.32421875 319.45703125 C8.24042969 320.30136719 8.15664062 321.14570312 8.0703125 322.015625 C7.99699707 322.79067383 7.92368164 323.56572266 7.84814453 324.36425781 C7.3980868 326.77348483 6.73978681 328.48763197 5.4375 330.5625 C0.86903923 332.79360875 -2.6822685 332.91811986 -7.5625 331.5625 C-10.30427312 329.34586375 -11.42839003 327.50082684 -11.92887414 323.99909115 C-12.08477732 320.59621464 -12.09996738 317.21492383 -12.0771637 313.80847168 C-12.08410922 312.49690708 -12.09105475 311.18534247 -12.09821075 309.83403349 C-12.11686143 306.19494838 -12.11052502 302.55626956 -12.10005772 298.91716743 C-12.09307256 294.99206974 -12.10905836 291.06705609 -12.12205505 287.14198303 C-12.14371137 279.45333847 -12.14356408 271.76484181 -12.13542951 264.07617676 C-12.12913322 257.82823069 -12.13026312 251.58032781 -12.13670158 245.3323822 C-12.13760324 244.44361231 -12.13850489 243.55484241 -12.13943387 242.6391401 C-12.14128504 240.83369941 -12.1431476 239.02825874 -12.14502143 237.22281808 C-12.1616054 220.28766759 -12.15287542 203.35260038 -12.13603585 186.4174549 C-12.12133639 170.9175805 -12.13596967 155.41789991 -12.16480602 139.91805047 C-12.19418471 124.00840226 -12.20517689 108.09884355 -12.19562382 92.18916941 C-12.19460125 90.39031889 -12.19360664 88.59146835 -12.1926403 86.7926178 C-12.19216391 85.9075169 -12.19168752 85.022416 -12.1911967 84.11049387 C-12.18903065 77.86903321 -12.19884668 71.62765711 -12.21341133 65.38621521 C-12.23090977 57.78137044 -12.23085318 50.17677286 -12.20805968 42.57193792 C-12.19689498 38.6907216 -12.19380478 34.80994117 -12.21236038 30.92874336 C-12.23220298 26.72431071 -12.21343121 22.52094591 -12.19068909 18.31652832 C-12.20252482 17.08550872 -12.21436054 15.85448913 -12.22655493 14.5861659 C-12.12521887 5.40834022 -12.12521887 5.40834022 -9.22270107 2.30467987 C-5.92688297 0.14623102 -3.91998758 -0.07721876 0 0 Z M20.4375 145.5625 C19.57133403 146.09474497 18.70516806 146.62698994 17.81275463 147.17536354 C12.53746424 150.81733769 12.53746424 150.81733769 9.50867653 156.28886032 C9.14373973 159.55281261 9.09675762 162.68635824 9.15942383 165.97021484 C9.14350693 167.19402359 9.12759003 168.41783234 9.1111908 169.6787262 C9.07905256 173.01782129 9.09153347 176.35067224 9.12717652 179.68933058 C9.15637777 183.19607148 9.13563736 186.7025904 9.12272644 190.2093811 C9.10913407 196.09907254 9.13686085 201.98749851 9.1887207 207.87695312 C9.24792807 214.66469328 9.23918168 221.44979241 9.19437391 228.23758352 C9.15292595 234.79141543 9.16260201 241.34426685 9.19421959 247.89812088 C9.20659129 250.67568742 9.20096126 253.45232791 9.18027687 256.22983932 C9.1538365 260.11957408 9.20201019 264.0065238 9.25708008 267.89599609 C9.24043304 269.03501877 9.22378601 270.17404144 9.20663452 271.34757996 C9.40275757 279.17670753 11.61720679 283.01042723 17.15967846 288.51055336 C20.16567175 291.21846429 23.14254463 293.87746198 26.375 296.3125 C26.97852295 296.77293701 27.5820459 297.23337402 28.20385742 297.70776367 C44.25270676 309.7940396 62.16872996 315.9854865 82.3125 315.875 C83.37243164 315.87008545 84.43236328 315.8651709 85.52441406 315.86010742 C92.87629336 315.74972734 99.50402666 315.15729987 106.4375 312.5625 C107.41203125 312.23378906 108.3865625 311.90507813 109.390625 311.56640625 C130.60471755 303.70631299 145.45076007 285.042441 154.75463867 265.09619141 C165.80837522 240.05384825 165.69775451 209.76727672 155.97094727 184.40625 C147.56161195 163.80249646 131.491784 146.26306439 111.4375 136.5625 C81.18604006 124.54479674 48.02809468 128.1478855 20.4375 145.5625 Z " fill="#000000" transform="translate(1656.5625,1212.4375)"/>
<path d="M0 0 C1.54300781 -0.07347656 1.54300781 -0.07347656 3.1171875 -0.1484375 C6.25556521 0.39772174 7.89056048 1.16388988 10.07385826 3.4917202 C12.52243227 7.87871179 11.81850791 13.363236 11.78442383 18.2434082 C11.79490753 19.55111679 11.80539124 20.85882538 11.81619263 22.2061615 C11.84431822 25.78443791 11.84187137 29.36211446 11.83389878 32.94046807 C11.83077216 36.68282921 11.85581254 40.42499981 11.87785339 44.1672821 C11.91529665 51.25034331 11.92744153 58.33321253 11.9304778 65.41636294 C11.93516834 73.48171415 11.96809146 81.54687299 12.00337565 89.61213934 C12.0753117 106.19974807 12.11182713 122.78723832 12.125 139.375 C12.59124786 138.90227158 13.05749573 138.42954315 13.53787231 137.94248962 C14.15717621 137.31814529 14.7764801 136.69380096 15.41455078 136.05053711 C16.02517365 135.43343369 16.63579651 134.81633026 17.2649231 134.18052673 C38.28022753 113.78153469 64.77883097 107.89657113 93.1640625 108.1640625 C110.94198101 108.54775858 127.44578488 113.79179365 141.125 125.375 C141.84171875 125.97957031 142.5584375 126.58414062 143.296875 127.20703125 C162.48034992 144.86623781 166.65101974 172.69469474 168.125 197.375 C168.46418189 206.70870666 168.45591171 216.04968276 168.45951414 225.38846779 C168.46095459 227.49372495 168.46525805 229.59895745 168.47050858 231.70420837 C168.4888471 239.06926078 168.49719611 246.43424191 168.49560547 253.79931641 C168.49439483 260.63952129 168.5157173 267.47941543 168.5470928 274.31954145 C168.57323264 280.23083702 168.58397438 286.14203043 168.58269465 292.05338335 C168.58218616 295.56835045 168.58781204 299.08303734 168.60905075 302.59794617 C168.63199548 306.49836602 168.62292669 310.39835171 168.61083984 314.29882812 C168.62207886 315.45410507 168.63331787 316.60938202 168.64489746 317.79966736 C168.58342893 325.58089697 168.58342893 325.58089697 166.28213501 329.56726074 C162.31825455 332.88910304 158.07879954 332.76201559 153.125 332.375 C149.22577031 331.27304378 148.4245707 330.82435605 146.125 327.375 C145.8688736 324.97343922 145.8688736 324.97343922 145.85998535 322.07270813 C145.85171219 320.97262421 145.84343903 319.87254028 145.83491516 318.73912048 C145.83589706 317.53139481 145.83687897 316.32366913 145.83789062 315.0793457 C145.82740032 313.12658669 145.81690961 311.17382767 145.80640411 309.22106874 C145.7970259 307.11930407 145.79256179 305.01757914 145.78947449 302.91579628 C145.78274886 298.52144341 145.76097318 294.12724351 145.73693848 289.73295593 C145.68793882 280.38450661 145.65573161 271.03602443 145.625 261.6875 C145.59184866 251.63821258 145.55552994 241.58898487 145.50086927 231.53978795 C145.4815103 227.89519644 145.46617016 224.25068341 145.46052551 220.60604286 C145.7432581 179.68716375 145.7432581 179.68716375 126.6328125 144.69921875 C113.14071462 132.19486013 96.08559606 129.62657175 78.32080078 130.24755859 C58.49719267 131.39809489 41.1504432 141.16856641 26.375 153.8125 C25.76068115 154.3379541 25.1463623 154.8634082 24.51342773 155.40478516 C23.33309624 156.44233076 22.17077426 157.50084256 21.0303688 158.58211899 C19.81170878 159.72883264 18.56119725 160.84315738 17.27381516 161.91214371 C12.86519367 166.05187187 11.62308677 169.31431552 11.26544189 175.34637451 C11.21096049 178.17128713 11.24501799 180.99053077 11.28613281 183.81542969 C11.28315263 185.37661092 11.27705194 186.93778883 11.26808167 188.49894714 C11.25548772 191.8479183 11.26478611 195.19584396 11.29138947 198.54473114 C11.33331672 203.83946273 11.32607426 209.13344549 11.31243896 214.42828369 C11.29669133 222.79929481 11.31386571 231.16986192 11.3451097 239.5408175 C11.40047294 254.54310294 11.40898504 269.54540092 11.39160609 284.54776883 C11.38693553 289.81209654 11.399713 295.07601402 11.42671156 300.34027147 C11.44096849 303.61055599 11.4432652 306.88077466 11.44267082 310.15108681 C11.44505677 311.66846009 11.45264322 313.18583535 11.46578407 314.70315361 C11.48310144 316.77286737 11.48208653 318.84179956 11.47662354 320.91156006 C11.48334768 322.64922449 11.48334768 322.64922449 11.49020767 324.42199326 C11.087029 327.68202703 10.39389739 329.0428608 8.125 331.375 C4.04489032 332.94363112 -0.57230739 332.81984166 -4.875 332.375 C-9.41554054 330.29391892 -9.41554054 330.29391892 -10.875 327.375 C-10.97103198 325.62253345 -11.00236672 323.86637956 -11.00363445 322.11128426 C-11.0068589 320.98811558 -11.01008335 319.8649469 -11.0134055 318.70774281 C-11.0118569 317.46341162 -11.0103083 316.21908043 -11.00871277 314.93704224 C-11.01097833 313.62325179 -11.01324388 312.30946134 -11.01557809 310.95585907 C-11.021719 307.2967872 -11.02155982 303.6377381 -11.02038372 299.97866225 C-11.02018028 296.03720351 -11.02569296 292.09575219 -11.03044128 288.15429688 C-11.03876101 280.42751748 -11.04149672 272.7007457 -11.04205366 264.9739622 C-11.04252821 258.69543816 -11.04457989 252.41691665 -11.04775429 246.1383934 C-11.05656458 228.35178693 -11.0611731 210.56518649 -11.06042381 192.77857782 C-11.06038386 191.81894694 -11.0603439 190.85931607 -11.06030273 189.87060547 C-11.06026185 188.90980776 -11.06022097 187.94901005 -11.06017885 186.95909725 C-11.05977231 171.38405404 -11.06934302 155.80903501 -11.0834411 140.23399879 C-11.09779064 124.25553909 -11.10471207 108.27709118 -11.10384732 92.29862487 C-11.10351485 83.32236516 -11.10628373 74.34613078 -11.11702538 65.36987686 C-11.12611171 57.72767543 -11.12832107 50.08551082 -11.12151595 42.44330634 C-11.11824122 38.5421078 -11.1182282 34.64097996 -11.1268692 30.73978806 C-11.13612995 26.51544634 -11.12998305 22.29126974 -11.12223816 18.06692505 C-11.12738172 16.8270553 -11.13252529 15.58718556 -11.13782471 14.309744 C-11.13322592 13.18135983 -11.12862712 12.05297566 -11.12388897 10.89039803 C-11.12410634 9.91484148 -11.12432371 8.93928494 -11.12454766 7.93416607 C-10.86088497 5.23024728 -10.40319845 3.61496999 -8.875 1.375 C-5.74420913 0.33140304 -3.28983851 0.10665312 0 0 Z " fill="#000000" transform="translate(1175.875,1212.625)"/>
<path d="M0 0 C2.07953336 3.03265282 2.7397863 5.56569462 2.5 9.1875 C1.15068421 13.34060356 -0.71786452 17.20236908 -2.625 21.125 C-3.11226562 22.17107422 -3.59953125 23.21714844 -4.1015625 24.29492188 C-11.64839892 40.26169946 -11.64839892 40.26169946 -15.5 42.1875 C-20.13587756 42.68067846 -22.93927319 42.07782734 -27.1875 40.1875 C-38.14841539 35.95431889 -52.40624886 36.76485747 -63.3359375 40.71875 C-74.43759448 45.87211176 -87.79692964 52.87737996 -93.5 64.1875 C-94.35783671 68.84380173 -94.29701346 73.41941016 -94.24121094 78.14331055 C-94.24611387 79.5452385 -94.25367857 80.94715926 -94.26368713 82.34906006 C-94.28351354 86.13631706 -94.26705311 89.92264591 -94.24442959 93.70985389 C-94.22754325 97.68072295 -94.24621554 101.65141639 -94.26153564 105.62226868 C-94.28553157 113.13850322 -94.28088592 120.65440971 -94.26441312 128.17065412 C-94.23583701 141.63735266 -94.25608394 155.10402838 -94.28681207 168.57070762 C-94.29645463 173.29443108 -94.29356511 178.01793547 -94.28013659 182.74164808 C-94.27332106 185.67874338 -94.27435939 188.61580195 -94.27714348 191.55290222 C-94.27638903 193.56171569 -94.26551962 195.57051738 -94.25434875 197.57929993 C-94.25808754 199.37710403 -94.25808754 199.37710403 -94.26190186 201.21122742 C-94.25850863 202.77052491 -94.25850863 202.77052491 -94.25504684 204.36132336 C-94.51458085 207.35572829 -95.15998702 209.50545782 -96.5 212.1875 C-103.13035138 216.69613894 -113.54457785 215.37004671 -121.1875 215.375 C-122.19361328 215.38724609 -123.19972656 215.39949219 -124.23632812 215.41210938 C-136.17510838 215.43571936 -136.17510838 215.43571936 -140.62718964 211.13046265 C-143.04255105 207.33492704 -143.05754398 204.15575164 -143.00793457 199.79931641 C-143.01417453 198.95736032 -143.0204145 198.11540424 -143.02684355 197.24793434 C-143.04279231 194.42802513 -143.03016202 191.60897805 -143.01757812 188.7890625 C-143.0229984 186.76690161 -143.03012053 184.74474467 -143.03881836 182.72259521 C-143.05706574 177.23089684 -143.04997824 171.73949879 -143.03730202 166.2477951 C-143.02718174 160.50324183 -143.036565 154.75871443 -143.04284668 149.01416016 C-143.0501259 139.36681497 -143.0405281 129.71959223 -143.02148438 120.07226562 C-142.99971518 108.91534169 -143.00676635 97.75871014 -143.02879 86.60179329 C-143.0469361 77.02629657 -143.04950616 67.45088792 -143.03903532 57.87537956 C-143.03279607 52.15476564 -143.03197669 46.43428919 -143.04518127 40.71368408 C-143.05672758 35.33573964 -143.04873611 29.9581725 -143.02560425 24.58026886 C-143.02031067 22.60537594 -143.02184199 20.63045133 -143.03065491 18.65557098 C-143.0415683 15.96184507 -143.02789792 13.269332 -143.00793457 10.57568359 C-143.01685746 9.79212305 -143.02578034 9.00856251 -143.03497362 8.20125771 C-142.96355212 3.24090433 -142.06465868 0.65647602 -138.5 -2.8125 C-132.18623373 -6.33077717 -124.12488283 -5.38673042 -117.171875 -4.5234375 C-115.375 -4 -115.375 -4 -112.5 -1.8125 C-110.66229614 1.71440639 -109.60401929 5.3779227 -108.5 9.1875 C-107.75701839 11.41901571 -107.00719477 13.64826694 -106.25 15.875 C-105.66513897 17.64532936 -105.08123295 19.41597616 -104.5 21.1875 C-103.88125 20.44306641 -103.88125 20.44306641 -103.25 19.68359375 C-80.72634761 -6.81186342 -30.60605618 -22.18939073 0 0 Z " fill="#000000" transform="translate(887.5,1329.8125)"/>
<path d="M0 0 C2.2629127 2.04392115 2.43008981 2.80594256 2.9375 5.75 C3.03127237 7.65700277 3.07072426 9.56695648 3.07553101 11.47625732 C3.08098434 12.64502914 3.08643768 13.81380096 3.09205627 15.01799011 C3.0930986 16.29692642 3.09414093 17.57586273 3.09521484 18.89355469 C3.09988564 20.25733096 3.10502965 21.62110569 3.11061096 22.98487854 C3.12188236 25.92208459 3.13032163 28.85928055 3.13673019 31.79650116 C3.14744303 36.45553825 3.1677012 41.11450353 3.18984985 45.77349854 C3.25164887 59.02263049 3.30561221 72.2717595 3.33886719 85.52099609 C3.35731438 92.83860607 3.38638227 100.1560967 3.4268719 107.47361875 C3.447788 111.33842748 3.46337688 115.20308675 3.46567917 119.06795502 C3.34478162 155.78875224 3.34478162 155.78875224 20.375 187.5 C35.76687376 201.01481598 55.24734445 201.93372388 74.9375 200.75 C95.30152733 198.2946729 111.58443148 185.44627659 124.9375 170.75 C125.70221225 170.01196199 125.70221225 170.01196199 126.48237324 169.25901413 C132.37670214 162.80028161 131.76173682 155.53961539 131.6628418 147.30957031 C131.66610439 145.7483902 131.67204573 144.18721375 131.68045044 142.62605286 C131.69281708 139.27719175 131.68647768 135.92908486 131.66538048 132.58026886 C131.63222826 127.28557268 131.64163876 121.99146356 131.6566925 116.69671631 C131.67554387 108.32576575 131.66656849 99.95511899 131.64537126 91.5841825 C131.60762438 76.58185904 131.60349166 61.57957659 131.63022357 46.57723117 C131.63831853 41.31292726 131.62970464 36.0489895 131.60766065 30.78472853 C131.59658798 27.5144343 131.5975574 24.2442203 131.6015358 20.97391319 C131.60074845 19.45654556 131.59477349 17.93917052 131.58325768 16.42184639 C131.56817868 14.35211747 131.57142747 12.2831909 131.57914734 10.21343994 C131.57596339 9.05499699 131.57277945 7.89655403 131.56949902 6.70300674 C131.97813704 3.42391 132.61390986 2.0644248 134.9375 -0.25 C140.24090061 -2.0178002 145.87325253 -2.17680499 151 0.125 C152.9375 1.75 152.9375 1.75 153.9375 3.75 C154.03984716 6.48691234 154.08087541 9.19863614 154.07794189 11.93600464 C154.08091302 12.79243722 154.08388414 13.6488698 154.0869453 14.53125489 C154.09565746 17.41781899 154.09714266 20.30434174 154.09863281 23.19091797 C154.10325918 25.25366302 154.10828359 27.31640721 154.11367798 29.37915039 C154.12682076 34.99482359 154.13325049 40.61048483 154.13768864 46.22617102 C154.14061609 49.73152294 154.14472025 53.23687156 154.14919281 56.74222183 C154.16287215 67.70072505 154.1725369 78.65922076 154.1763947 89.61773193 C154.18087789 102.2844925 154.19843612 114.95114529 154.2273953 127.61787307 C154.24898182 137.39793969 154.25909735 147.17797591 154.26043582 156.95806611 C154.26148594 162.80444165 154.26743781 168.65071595 154.28525543 174.4970665 C154.30168398 179.99471603 154.30391706 185.49218764 154.29511642 190.98985291 C154.29434327 193.01032613 154.29872522 195.03080872 154.30857468 197.05125809 C154.32121132 199.80439586 154.31546272 202.5568955 154.30499268 205.31002808 C154.31707728 206.51615338 154.31707728 206.51615338 154.32940602 207.74664485 C154.30015908 211.02310708 154.16350045 213.34671388 152.5449028 216.23501778 C149.55902046 219.04922133 145.87178163 218.79840065 141.9375 218.75 C139 218.1875 139 218.1875 136.9375 216.75 C134.82319965 211.74901651 134.33264511 206.7214096 133.8125 201.375 C133.72613281 200.54355469 133.63976563 199.71210937 133.55078125 198.85546875 C133.34031157 196.82092853 133.13806686 194.7855403 132.9375 192.75 C132.38835937 193.45962891 132.38835937 193.45962891 131.828125 194.18359375 C117.63387205 211.52085985 95.17740025 220.76973359 73.27734375 223.3671875 C48.68318974 225.7616151 25.10159991 221.6328384 4.6875 207.5 C-13.89334114 188.91915886 -19.19804934 162.17097741 -19.34466553 136.78970337 C-19.34218811 135.50341034 -19.33971069 134.21711731 -19.3371582 132.8918457 C-19.34152077 131.47741938 -19.34670896 130.06299542 -19.35264587 128.64857483 C-19.36586464 124.86003178 -19.36663523 121.07158945 -19.36408257 117.28302789 C-19.36300355 114.10888008 -19.36791851 110.93475191 -19.372688 107.76060838 C-19.38371838 100.27862264 -19.38425383 92.79668716 -19.37817383 85.31469727 C-19.37210512 77.60442384 -19.38453279 69.89433156 -19.4057439 62.184089 C-19.42334281 55.54172904 -19.42936496 48.89942692 -19.42610615 42.25704449 C-19.42429435 38.29886397 -19.42692151 34.34081348 -19.44082069 30.38265419 C-19.45337071 26.67161882 -19.45148216 22.96086873 -19.43840981 19.24983788 C-19.43491003 17.23971186 -19.44623565 15.2295772 -19.45797729 13.21948242 C-19.45096298 12.02402298 -19.44394867 10.82856354 -19.4367218 9.59687805 C-19.43688954 8.55814198 -19.43705729 7.51940592 -19.43723011 6.449193 C-19.00481687 3.33450655 -18.25024601 1.98107598 -16.0625 -0.25 C-10.77490199 -2.01253267 -5.17767012 -2.11333474 0 0 Z " fill="#000000" transform="translate(1424.0625,1326.25)"/>
</svg>
